<svg width="66" height="86" viewBox="0 0 66 86" fill="none" xmlns="http://www.w3.org/2000/svg">
<ellipse cx="3.75511" cy="3" rx="2.93878" ry="3" fill="#5C5F60"/>
<ellipse cx="23.3469" cy="3" rx="2.93878" ry="3" fill="#5C5F60"/>
<ellipse cx="42.9388" cy="3" rx="2.93878" ry="3" fill="#5C5F60"/>
<ellipse cx="62.5306" cy="3" rx="2.93878" ry="3" fill="#5C5F60"/>
<ellipse cx="3.75511" cy="23" rx="2.93878" ry="3" fill="#5C5F60"/>
<ellipse cx="23.3469" cy="23" rx="2.93878" ry="3" fill="#5C5F60"/>
<ellipse cx="42.9388" cy="23" rx="2.93878" ry="3" fill="#5C5F60"/>
<ellipse cx="62.5306" cy="23" rx="2.93878" ry="3" fill="#5C5F60"/>
<ellipse cx="3.75511" cy="43" rx="2.93878" ry="3" fill="#5C5F60"/>
<ellipse cx="23.3469" cy="43" rx="2.93878" ry="3" fill="#5C5F60"/>
<ellipse cx="42.9388" cy="43" rx="2.93878" ry="3" fill="#5C5F60"/>
<ellipse cx="62.5306" cy="43" rx="2.93878" ry="3" fill="#5C5F60"/>
<ellipse cx="3.75511" cy="63" rx="2.93878" ry="3" fill="#5C5F60"/>
<ellipse cx="23.3469" cy="63" rx="2.93878" ry="3" fill="#5C5F60"/>
<ellipse cx="42.9388" cy="63" rx="2.93878" ry="3" fill="#5C5F60"/>
<ellipse cx="62.5306" cy="63" rx="2.93878" ry="3" fill="#5C5F60"/>
<ellipse cx="3.75511" cy="83" rx="2.93878" ry="3" fill="#5C5F60"/>
<ellipse cx="23.3469" cy="83" rx="2.93878" ry="3" fill="#5C5F60"/>
<ellipse cx="42.9388" cy="83" rx="2.93878" ry="3" fill="#5C5F60"/>
<ellipse cx="62.5306" cy="83" rx="2.93878" ry="3" fill="#5C5F60"/>
</svg>
